<svg width="208" height="107" viewBox="0 0 208 107" fill="none" xmlns="http://www.w3.org/2000/svg">
<g clip-path="url(#clip0)">
<path d="M207.855 26.2979C207.855 44.9979 173.955 106.898 104.155 106.898C36.5554 106.898 0.455444 43.8979 0.455444 26.2979V22.5979C0.455444 10.1979 10.4554 0.197876 22.8554 0.197876H185.455C197.855 0.197876 207.855 10.1979 207.855 22.5979V26.2979Z" fill="black"/>
<path d="M59.7554 0.197876V19.0979C59.7554 29.4979 68.2554 37.9979 78.6554 37.9979C89.0554 37.9979 97.5554 29.4979 97.5554 19.0979V0.197876H59.7554Z" fill="#FEFFFD"/>
<path d="M110.155 0.197876V19.0979C110.155 29.4979 118.655 37.9979 129.055 37.9979C139.455 37.9979 147.955 29.4979 147.955 19.0979V0.197876H110.155Z" fill="#FEFFFD"/>
</g>
<defs>
<clipPath id="clip0">
<rect x="0.455444" y="0.197876" width="207.4" height="106.7" fill="white"/>
</clipPath>
</defs>
</svg>
